# xmcd
#
# Track frame offsets: 
#        150
#        13075
#        21084
#        34176
#        46375
#        56330
#        67949
#        78854
#        87545
#        100187
#        111524
#        123596
#        137783
#        150273
#        161783
#        173581
#        184347
#        196550
#        207315
#        219506
#
# Disc length: 3078 seconds
#
# Revision: 0
# Processed by: cddbd v1.5.2PL0 Copyright (c) Steve Scherf et al.
# Submitted via: ExactAudioCopy v0.99pb5
#
DISCID=0c0c0414
DTITLE=Jim Reeves - The Primo Collection [CD1]
DYEAR=2008
DGENRE=Country
TTITLE0=Four Walls
TTITLE1=Waiting For A Train
TTITLE2=Have I Told You Lately That I Love You
TTITLE3=I've Lived A Lot in My Time
TTITLE4=Beyond The Shadow Of A Doubt
TTITLE5=Yonder Comes A Sucker
TTITLE6=My Lips Are Sealed
TTITLE7=Oklahoma Hills
TTITLE8=Your Old Love Letters
TTITLE9=According To My heart
TTITLE10=Am I Losing You
TTITLE11=Each Beat Of My Heart
TTITLE12=Let Me Love You Just A Little
TTITLE13=Wagon Load Of Love
TTITLE14=Whispering Willow
TTITLE15=Beatin' On The Ding Dong
TTITLE16=The Wilder Your Heart Beats (The Sweeter You Are)
TTITLE17=Where Does A Broken Heart Go
TTITLE18=Shall We Gather At The River
TTITLE19=I Love You (with Ginny Wright)
EXTD=
EXTT0=
EXTT1=
EXTT2=
EXTT3=
EXTT4=
EXTT5=
EXTT6=
EXTT7=
EXTT8=
EXTT9=
EXTT10=
EXTT11=
EXTT12=
EXTT13=
EXTT14=
EXTT15=
EXTT16=
EXTT17=
EXTT18=
EXTT19=
PLAYORDER=
